<?xml version="1.0" encoding="iso-8859-1"?>
<!-- Uploaded to: SVG Repo, www.svgrepo.com, Generator: SVG Repo Mixer Tools -->
<svg height="800px" width="800px" version="1.1" id="Layer_1" xmlns="http://www.w3.org/2000/svg" xmlns:xlink="http://www.w3.org/1999/xlink" 
	 viewBox="0 0 512 512" xml:space="preserve">
<path style="fill:#0CA7A6;" d="M211.027,432.705v34.321l0,0C211.027,491.865,231.162,512,256,512s44.973-20.135,44.973-44.973
	v-34.321L211.027,432.705z"/>
<path style="fill:#26D9DA;" d="M256,432.705h-44.973v34.321l0,0C211.027,491.865,231.162,512,256,512V432.705z"/>
<path style="fill:#FBB500;" d="M256,0C160.451,0,82.994,77.457,82.994,173.006c0,47.263,18.952,90.1,49.671,121.325l0.011-0.013
	c21.017,20.943,36.017,47.916,42.219,78.1v24.643h162.208v-24.643c6.201-30.183,21.201-57.157,42.219-78.1l0.012,0.013
	c30.719-31.225,49.671-74.061,49.671-121.325C429.006,77.457,351.549,0,256,0z"/>
<path style="fill:#FFCE47;" d="M256,397.061V0C160.451,0,82.994,77.457,82.994,173.006c0,47.263,18.952,90.1,49.671,121.325
	l0.011-0.013c21.017,20.943,36.017,47.916,42.219,78.1v24.643H256z"/>
<path style="fill:#FFF1D8;" d="M305.093,378.258h-31.347V259.911h-35.494v118.347h-31.347V259.911h-10.659
	c-23.162,0-42.006-18.844-42.006-42.005c0-23.162,18.844-42.006,42.006-42.006s42.006,18.844,42.006,42.006v10.658h35.494v-10.658
	c0-23.162,18.844-42.006,42.006-42.006c23.162,0,42.006,18.844,42.006,42.006c0,23.161-18.844,42.005-42.006,42.005h-10.659V378.258
	z M305.093,228.564h10.659c5.878,0,10.659-4.781,10.659-10.658c0-5.878-4.781-10.659-10.659-10.659
	c-5.878,0-10.659,4.781-10.659,10.659V228.564z M196.248,207.247c-5.878,0-10.659,4.781-10.659,10.659
	c0,5.876,4.781,10.658,10.659,10.658h10.659v-10.658C206.907,212.029,202.124,207.247,196.248,207.247z"/>
<path style="fill:#0CA7A6;" d="M348.889,393.682c0-8.968-4.715-16.818-11.784-21.264H174.896
	c-7.071,4.446-11.784,12.295-11.784,21.264c0,11.896,8.277,21.837,19.38,24.439h0.029c-6.663,4.518-11.042,12.151-11.042,20.807
	c0,13.876,11.248,25.125,25.125,25.125h118.797c13.875,0,25.125-11.248,25.125-25.125c0-8.657-4.379-16.29-11.042-20.807h0.029
	C340.612,415.519,348.889,405.578,348.889,393.682z"/>
<path style="fill:#26D9DA;" d="M256,372.418h-81.104c-7.071,4.446-11.784,12.295-11.784,21.264c0,11.896,8.277,21.837,19.38,24.439
	h0.029c-6.663,4.518-11.042,12.151-11.042,20.807c0,13.876,11.248,25.125,25.125,25.125H256V372.418z"/>
<path style="fill:#008E8E;" d="M329.48,418.12H182.52c-6.663,4.518-11.042,12.151-11.042,20.807
	c0,13.876,11.248,25.125,25.125,25.125h118.797c13.875,0,25.125-11.248,25.125-25.125
	C340.523,430.271,336.143,422.638,329.48,418.12z"/>
<path style="fill:#0CA7A6;" d="M256,418.12h-73.48c-6.663,4.518-11.042,12.151-11.042,20.807c0,13.876,11.248,25.125,25.125,25.125
	H256V418.12z"/>
</svg>