<?xml version="1.0" encoding="iso-8859-1"?>
<!-- Uploaded to: SVG Repo, www.svgrepo.com, Generator: SVG Repo Mixer Tools -->
<svg height="800px" width="800px" version="1.1" id="Layer_1" xmlns="http://www.w3.org/2000/svg" xmlns:xlink="http://www.w3.org/1999/xlink" 
	 viewBox="0 0 512 512" xml:space="preserve">
<path style="fill:#5286F9;" d="M499.602,83.644c-7.626-4.031-16.857-3.513-23.985,1.347l-125.513,85.578V104.22
	c0-12.853-10.42-23.273-23.273-23.273H23.273C10.42,80.947,0,91.367,0,104.22v151.779v151.78c0,12.853,10.42,23.273,23.273,23.273
	H326.83c12.853,0,23.273-10.42,23.273-23.273v-66.347l125.513,85.577c3.938,2.684,8.516,4.045,13.112,4.045
	c3.724,0,7.46-0.894,10.873-2.697c7.627-4.031,12.398-11.95,12.398-20.576V255.999V104.22C512,95.594,507.229,87.675,499.602,83.644
	z"/>
<path style="fill:#3D6DEB;" d="M0,407.777c0,12.853,10.42,23.273,23.273,23.273H326.83c12.853,0,23.273-10.42,23.273-23.273V341.43
	l125.514,85.577c3.938,2.684,8.516,4.045,13.112,4.045c3.724,0,7.46-0.894,10.873-2.697c7.627-4.031,12.398-11.95,12.398-20.576
	v-151.78H0V407.777z"/>
</svg>